<?xml version="1.0" encoding="UTF-8"?>
<svg xmlns="http://www.w3.org/2000/svg" version="1.1" viewBox="0 0 85.04 85.04">
  <defs>
    <style>
      .cls-1 {
        fill: #878c87;
      }
    </style>
  </defs>
  <!-- Generator: Adobe Illustrator 28.7.0, SVG Export Plug-In . SVG Version: 1.2.0 Build 136)  -->
  <g>
    <g id="Layer_1">
      <g id="Layer_1-2" data-name="Layer_1">
        <g>
          <path class="cls-1" d="M11.05,42.54c0-9.14.04-18.29-.03-27.43-.02-2.29,1.71-4.08,4.1-4.07,18.27.05,36.53.05,54.8,0,2.37,0,4.11,1.77,4.1,4.06-.05,18.33-.03,36.66-.03,54.99,0,1.92-1.04,3.33-2.77,3.81-.34.1-.69.1-1.04.1H14.86c-2.25,0-3.81-1.57-3.81-3.84v-27.63h0ZM42.59,25.82H14.24c-.67,0-1,.33-1,.98v42.69c0,.24,0,.48.01.72.09.99.6,1.5,1.58,1.59.26.02.52.01.79.01h54.54c1.04-.07,1.58-.62,1.65-1.67.01-.2,0-.39,0-.59V26.73c0-.61-.31-.92-.94-.92h-28.28ZM42.5,23.63h28.41c.59,0,.89-.3.89-.9v-7.4c0-1.55-.54-2.08-2.1-2.08H15.29c-1.51,0-2.06.54-2.06,2.05v7.4c0,.62.31.93.92.94h28.35,0Z"/>
          <path class="cls-1" d="M42.55,27.82h22.58c1.24,0,1.53.29,1.53,1.55v36.78c0,1.28-.28,1.56-1.59,1.56H19.97c-1.33,0-1.6-.27-1.6-1.62V29.44c0-1.37.26-1.63,1.65-1.63h22.53ZM42.54,34.2h-16.76c-1.8,0-3.17-1.32-3.21-3.03-.02-.77-.41-1.16-1.18-1.15h-.2c-.49-.06-.63.17-.63.64.01,10.01,0,20.03,0,30.04,0,.47.12.66.62.66,2.01-.02,4.01-.02,6.02,0,.45,0,.62-.15.61-.61-.02-1-.02-2.01,0-3.01.01-.44-.13-.7-.53-.93-1.15-.66-1.66-1.71-1.56-3.02.1-1.23.74-2.1,1.86-2.65.68-.34,1.41-.28,2.12-.25.51.02.83-.15,1.15-.56,1.93-2.41,4.45-3.65,7.55-3.64,2.86,0,5.72-.03,8.57,0,2.72.03,5.03,1.1,6.78,3.16.67.78,1.31,1.09,2.31,1.05,1.56-.07,2.74.87,3.15,2.33.39,1.4-.2,2.85-1.54,3.62-.36.21-.47.45-.46.84.02.98.04,1.97,0,2.94-.03.6.21.73.76.72,1.85-.03,3.71,0,5.56,0,.62,0,.93-.31.93-.93v-28.93c0-1.71.32-1.44-1.55-1.48-.4,0-.5.1-.48.52.16,2.29-1.15,3.67-3.46,3.67h-16.43ZM42.45,61.34c3.95,0,7.9,0,11.85,0,.56,0,.78-.15.75-.73-.04-.89-.04-1.79,0-2.68.02-.56-.19-.71-.72-.7-2.38.02-4.76,0-7.14,0-5.48,0-10.96,0-16.43,0-.59,0-.82.15-.79.77.05.85.05,1.7,0,2.55-.04.65.2.81.82.8,3.88-.03,7.77,0,11.65,0h0ZM42.52,63.53h-21.21c-.23,0-.57-.1-.66.15-.18.52-.16,1.1-.03,1.61.11.44.6.23.92.23,13.99.01,27.98,0,41.97,0h.46c.36.02.53-.12.51-.49-.01-.2,0-.39,0-.59,0-.61-.31-.92-.94-.92h-21.02ZM42.51,32.01h15.97c.24,0,.48,0,.72-.01.62-.06,1.04-.47,1.04-.98s-.41-.92-1.03-1c-.15-.02-.31-.01-.46-.01H26.28c-.26,0-.53.02-.77.08-.45.12-.71.45-.71.91s.25.77.7.93c.3.1.6.08.91.08h16.11-.01ZM42.52,53.06h-13.03c-1.03,0-1.56.34-1.56,1s.53,1,1.56,1h26.06c1.03,0,1.56-.35,1.56-1s-.53-1-1.56-1h-13.03ZM33.39,50.83h18.11c-.62-.84-2.4-1.76-3.73-1.84-3.51-.22-7.02-.24-10.52,0-1.42.1-2.65.78-3.86,1.83Z"/>
          <path class="cls-1" d="M35.23,18.47c0,1.8-1.4,3.17-3.21,3.16-1.79,0-3.17-1.4-3.16-3.21,0-1.8,1.4-3.16,3.22-3.16s3.17,1.4,3.16,3.21h-.01ZM32.01,19.41c.49.02.98-.44,1-.94.02-.49-.45-.98-.94-1-.48-.02-.98.45-1,.94s.45.98.94,1Z"/>
          <path class="cls-1" d="M45.71,18.44c0,1.8-1.39,3.19-3.19,3.19s-3.18-1.38-3.18-3.19,1.38-3.18,3.19-3.18,3.19,1.38,3.18,3.19h0ZM43.49,18.45c0-.49-.46-.98-.96-.99-.49,0-.98.47-.99.96,0,.49.46.98.96.98s.97-.46.98-.96h.01Z"/>
          <path class="cls-1" d="M52.98,15.25c1.81,0,3.2,1.37,3.2,3.17s-1.37,3.2-3.17,3.2-3.2-1.37-3.2-3.17,1.37-3.2,3.17-3.2ZM53.02,19.41c.5-.02.96-.5.95-1-.02-.49-.51-.96-.99-.95-.49.02-.96.51-.95,1,.02.49.51.96,1,.95h0Z"/>
          <path class="cls-1" d="M35.15,40.23c-.04-.54.06-1.05.29-1.53.34-.68.7-1.33.83-2.11.09-.55.58-.82,1.14-.75.56.07.9.42.96,1,.08.79-.12,1.53-.56,2.17-.58.84-.57,1.64,0,2.48.44.65.63,1.38.56,2.17-.06.57-.38.91-.95.99-.55.08-1.1-.25-1.18-.79-.1-.67-.37-1.24-.69-1.81-.31-.56-.45-1.18-.4-1.82Z"/>
          <path class="cls-1" d="M40.91,40.23c-.04-.54.06-1.05.29-1.53.34-.68.7-1.33.83-2.11.09-.55.58-.82,1.14-.75.56.07.9.43.95,1,.08.79-.12,1.53-.56,2.17-.58.84-.57,1.64,0,2.48.44.65.63,1.38.56,2.17-.06.57-.38.91-.95.99-.56.07-1.1-.25-1.18-.79-.1-.67-.37-1.24-.69-1.81-.31-.56-.45-1.18-.4-1.82h0Z"/>
          <path class="cls-1" d="M46.67,40.25c-.04-.62.08-1.17.35-1.68.33-.61.64-1.22.74-1.93.08-.55.55-.84,1.11-.8s.92.38,1,.95c.1.76-.06,1.49-.5,2.12-.62.9-.65,1.74,0,2.65.43.62.6,1.35.52,2.12-.06.57-.39.91-.97.98-.57.06-1.05-.2-1.14-.75-.13-.73-.44-1.35-.77-1.99-.27-.53-.4-1.11-.34-1.67h0Z"/>
        </g>
      </g>
    </g>
  </g>
</svg>