<?xml version="1.0" encoding="UTF-8"?>
<svg xmlns="http://www.w3.org/2000/svg" version="1.1" viewBox="0 0 85.04 85.04">
  <defs>
    <style>
      .cls-1 {
        fill: #878c87;
      }
    </style>
  </defs>
  <!-- Generator: Adobe Illustrator 28.7.0, SVG Export Plug-In . SVG Version: 1.2.0 Build 136)  -->
  <g>
    <g id="Layer_1">
      <g id="Layer_1-2" data-name="Layer_1">
        <g>
          <path class="cls-1" d="M68.66,73.79H16.38c-2.83,0-5.13-2.3-5.13-5.13V16.38c0-2.83,2.3-5.13,5.13-5.13h52.28c2.83,0,5.13,2.3,5.13,5.13v52.28c0,2.83-2.3,5.13-5.13,5.13ZM16.38,13.84c-1.4,0-2.54,1.14-2.54,2.54v52.28c0,1.4,1.14,2.54,2.54,2.54h52.28c1.4,0,2.54-1.14,2.54-2.54V16.38c0-1.4-1.14-2.54-2.54-2.54,0,0-52.28,0-52.28,0Z"/>
          <g>
            <g>
              <path class="cls-1" d="M28.93,38.42c-4.52,0-8.19-3.68-8.19-8.19s3.68-8.19,8.19-8.19,8.19,3.68,8.19,8.19-3.68,8.19-8.19,8.19ZM28.93,22.9c-4.04,0-7.33,3.29-7.33,7.33s3.29,7.33,7.33,7.33,7.33-3.29,7.33-7.33-3.29-7.33-7.33-7.33Z"/>
              <path class="cls-1" d="M28.93,34.11c-2.14,0-3.88-1.74-3.88-3.88s1.74-3.88,3.88-3.88,3.88,1.74,3.88,3.88-1.74,3.88-3.88,3.88ZM28.93,27.21c-1.66,0-3.02,1.35-3.02,3.02s1.35,3.02,3.02,3.02,3.02-1.35,3.02-3.02-1.35-3.02-3.02-3.02Z"/>
            </g>
            <g>
              <path class="cls-1" d="M28.93,63.01c-4.52,0-8.19-3.68-8.19-8.19s3.68-8.19,8.19-8.19,8.19,3.68,8.19,8.19-3.68,8.19-8.19,8.19ZM28.93,47.48c-4.04,0-7.33,3.29-7.33,7.33s3.29,7.33,7.33,7.33,7.33-3.29,7.33-7.33-3.29-7.33-7.33-7.33Z"/>
              <path class="cls-1" d="M28.93,58.69c-2.14,0-3.88-1.74-3.88-3.88s1.74-3.88,3.88-3.88,3.88,1.74,3.88,3.88-1.74,3.88-3.88,3.88ZM28.93,51.79c-1.66,0-3.02,1.35-3.02,3.02s1.35,3.02,3.02,3.02,3.02-1.35,3.02-3.02-1.35-3.02-3.02-3.02Z"/>
            </g>
            <g>
              <path class="cls-1" d="M49.2,38.42c-4.52,0-8.19-3.68-8.19-8.19s3.68-8.19,8.19-8.19,8.19,3.68,8.19,8.19-3.68,8.19-8.19,8.19ZM49.2,22.9c-4.04,0-7.33,3.29-7.33,7.33s3.29,7.33,7.33,7.33,7.33-3.29,7.33-7.33-3.29-7.33-7.33-7.33Z"/>
              <path class="cls-1" d="M49.2,34.11c-2.14,0-3.88-1.74-3.88-3.88s1.74-3.88,3.88-3.88,3.88,1.74,3.88,3.88-1.74,3.88-3.88,3.88ZM49.2,27.21c-1.66,0-3.02,1.35-3.02,3.02s1.35,3.02,3.02,3.02,3.02-1.35,3.02-3.02-1.35-3.02-3.02-3.02Z"/>
            </g>
            <g>
              <path class="cls-1" d="M49.2,63.01c-4.52,0-8.19-3.68-8.19-8.19s3.68-8.19,8.19-8.19,8.19,3.68,8.19,8.19-3.68,8.19-8.19,8.19ZM49.2,47.48c-4.04,0-7.33,3.29-7.33,7.33s3.29,7.33,7.33,7.33,7.33-3.29,7.33-7.33-3.29-7.33-7.33-7.33Z"/>
              <path class="cls-1" d="M49.2,58.69c-2.14,0-3.88-1.74-3.88-3.88s1.74-3.88,3.88-3.88,3.88,1.74,3.88,3.88-1.74,3.88-3.88,3.88ZM49.2,51.79c-1.66,0-3.02,1.35-3.02,3.02s1.35,3.02,3.02,3.02,3.02-1.35,3.02-3.02-1.35-3.02-3.02-3.02Z"/>
            </g>
          </g>
          <g>
            <circle class="cls-1" cx="66.35" cy="33.14" r="1.51"/>
            <circle class="cls-1" cx="66.35" cy="39.39" r="1.51"/>
            <circle class="cls-1" cx="66.35" cy="45.65" r="1.51"/>
            <circle class="cls-1" cx="66.35" cy="51.9" r="1.51"/>
          </g>
        </g>
      </g>
    </g>
  </g>
</svg>