<?xml version="1.0" encoding="UTF-8"?>
<svg xmlns="http://www.w3.org/2000/svg" version="1.1" viewBox="0 0 85.04 85.04">
  <defs>
    <style>
      .cls-1 {
        fill: #878c87;
      }
    </style>
  </defs>
  <!-- Generator: Adobe Illustrator 28.7.0, SVG Export Plug-In . SVG Version: 1.2.0 Build 136)  -->
  <g>
    <g id="Layer_1">
      <g id="Layer_1-2" data-name="Layer_1">
        <g id="Layer_1-2">
          <g>
            <path class="cls-1" d="M71.87,24.49c-.48,2.32-1.86,3.99-3.72,5.37-2.63,1.95-5.18,4-7.77,6.01-.77.6-.78.71-.09,1.4,1.39,1.39,2.78,2.77,4.16,4.16,2.74,2.78,2.76,6.99.04,9.78-.7.72-1.41,1.42-2.12,2.12-.57.56-1.11.63-1.54.21-.43-.42-.37-.98.17-1.54.7-.71,1.42-1.41,2.12-2.13,2.01-2.07,2.01-5.07-.02-7.12-1.46-1.48-2.94-2.94-4.41-4.41-1.21-1.22-1.13-2.68.23-3.74,2.98-2.33,5.99-4.63,8.95-6.99,1.82-1.45,2.51-3.4,1.99-5.66-.52-2.24-1.97-3.71-4.22-4.19-2.31-.49-4.26.25-5.73,2.13-2.26,2.89-4.5,5.79-6.75,8.68-1.18,1.53-2.61,1.62-3.98.25-1.4-1.4-2.8-2.81-4.2-4.2-2.16-2.14-5.15-2.16-7.29-.02-7.56,7.55-15.12,15.11-22.67,22.67-2.12,2.12-2.11,5.11.01,7.24,6.03,6.04,12.06,12.07,18.1,18.1,2.15,2.14,5.12,2.13,7.28-.03,5.62-5.61,11.23-11.23,16.85-16.85.18-.18.35-.37.56-.52.41-.3.84-.31,1.24.04.35.32.38.86.07,1.28-.12.16-.26.29-.4.43-5.64,5.64-11.28,11.29-16.93,16.93-2.99,2.99-7.39,2.84-10.31-.21-2.59-2.71-5.27-5.32-7.92-7.97-3.22-3.21-6.44-6.43-9.67-9.63-2-1.98-2.76-4.32-2.06-7.08.32-1.27,1.05-2.31,1.97-3.23,7.52-7.52,15.02-15.04,22.55-22.54,2.88-2.87,7.07-2.83,9.95.02,1.38,1.37,2.75,2.75,4.12,4.12.64.64.77.64,1.33-.07,2.18-2.8,4.38-5.59,6.53-8.41,1.26-1.65,2.89-2.67,4.89-3.13h2.47c1.17.27,2.28.68,3.26,1.41,1.64,1.22,2.56,2.87,2.98,4.83v2.47s-.02.02-.02.02Z"/>
            <path class="cls-1" d="M36.79,72.54c-.94,0-1.73-.29-2.37-.92-1.71-1.7-3.42-3.4-5.12-5.11-.5-.5-.54-1.05-.16-1.46.41-.44.96-.4,1.49.13,1.45,1.44,2.92,2.85,4.32,4.33,1.36,1.45,2.09,1.54,3.61,0,5.01-5.08,10.08-10.11,15.12-15.15.69-.69,1.26-.8,1.71-.32.44.47.34.95-.37,1.66-5.24,5.24-10.48,10.48-15.72,15.72-.71.72-1.52,1.16-2.52,1.13h0Z"/>
            <path class="cls-1" d="M67.55,23.36c-.01,1.78-1.46,3.18-3.25,3.17-1.77-.01-3.19-1.46-3.17-3.25,0-1.77,1.46-3.19,3.25-3.17,1.78.01,3.18,1.46,3.17,3.25ZM65.62,23.33c0-.77-.51-1.29-1.28-1.29s-1.29.51-1.29,1.28.51,1.29,1.28,1.29,1.29-.5,1.29-1.28Z"/>
            <path class="cls-1" d="M41.5,31.59h-5.35c-.73,0-1.17-.47-1.06-1.09.07-.41.31-.68.72-.75.31-.05.62-.07.93-.07h9.52c.27,0,.55.01.82.05.55.09.87.46.85.95-.02.51-.4.88-.97.9-.82.02-1.65,0-2.47,0h-3,.01Z"/>
            <path class="cls-1" d="M45.18,35.35h-4.82c-.32,0-.63-.03-.88-.25-.53-.45-.41-1.26.22-1.55.26-.12.53-.13.81-.13h9.69c.69.05,1.11.42,1.1.98,0,.56-.43.93-1.12.94h-5Z"/>
            <path class="cls-1" d="M41.51,27.83c-.61,0-1.21.01-1.82,0-.6-.01-1.01-.4-1.01-.92s.41-.91,1.01-.92c1.21-.01,2.42-.01,3.64,0,.6,0,1.01.4,1.01.92s-.41.91-1.01.92c-.61.01-1.21,0-1.82,0Z"/>
            <path class="cls-1" d="M34.19,35.35c-.49,0-.98.02-1.47,0-.61-.03-1-.41-1-.94s.34-.92.93-.95c1.04-.04,2.08-.04,3.12,0,.55.02.94.49.93.96-.02.52-.42.9-1.02.92-.49.02-.98,0-1.47,0h-.02,0Z"/>
          </g>
        </g>
      </g>
    </g>
  </g>
</svg>