<?xml version="1.0" encoding="UTF-8"?>
<svg xmlns="http://www.w3.org/2000/svg" version="1.1" viewBox="0 0 85.04 85.04">
  <defs>
    <style>
      .cls-1 {
        fill: #878c87;
      }
    </style>
  </defs>
  <!-- Generator: Adobe Illustrator 28.7.0, SVG Export Plug-In . SVG Version: 1.2.0 Build 136)  -->
  <g>
    <g id="Layer_1">
      <g id="Layer_1-2" data-name="Layer_1">
        <g>
          <path class="cls-1" d="M72.06,66.45c-.55,0-.69.39-.69.87v1.17h-7v-11.19h7v6.84c0,.48.16.86.71.85.54,0,.69-.38.69-.87v-14.39c0-.67-.23-.89-.91-.91-.38,0-.75,0-1.18,0v-5.99c0-.3-.03-.61-.1-.9-.26-.99-1.2-1.61-2.25-1.51-1,.1-1.8.9-1.85,1.91-.03.52-.02,1.05,0,1.57,0,.43.25.68.68.69.43,0,.67-.24.7-.67.02-.38,0-.77.01-1.15.01-.64.29-1.02.74-.96.56.07.67.47.67.96v5.56c0,.15-.03.31-.04.45h-16.14v-2.05h1.87c.5,0,.9-.13.93-.7.03-.45-.32-.72-.92-.72h-9.37c-.71,0-.94.24-.95.95v2.53h-4.41c.09-.93.19-1.84.28-2.75.52-.07,1.24.13,1.29-.66.05-.94-.79-.69-1.33-.81-.02-.11-.03-.19-.04-.26-.06-.98-.17-1.09-1.16-1.09h-5.92c-.85,0-1.3.41-1.37,1.24-.1,1.24-.04.07-.08.12-.49.09-1.27-.12-1.29.7-.03.92.8.67,1.32.77.09.93.17,1.82.25,2.74h-8.01c.26-.85.59-1.68.74-2.55.13-.68.05-1.41.04-2.11,0-.69-.23-.9-.91-.9h-2.15c-.04-.06-.09-.13-.13-.19.23-.18.48-.35.69-.55.37-.33.56-.71.17-1.15-.3-.33-.72-.27-1.15.15-.07.07-.15.13-.21.21-.9,1.29-2.13,1.79-3.68,1.52-.08,0-.16,0-.24,0-.55,0-.82.26-.82.81.02,1.63-.25,3.32,1.07,4.79h-4.19c-.91,0-1.09.19-1.09,1.1v21.77c0,.89.16,1.06,1.05,1.06h10.58c.14,0,.33.05.41-.02.22-.19.55-.43.56-.65,0-.23-.29-.51-.52-.67-.15-.1-.43-.05-.65-.05h-9.99v-1.38h57.61v1.38H29.1c-.26,0-.57-.06-.77.05-.24.14-.53.44-.53.66s.31.51.55.65c.18.11.47.03.72.03h42.86c.6-.02.83-.24.84-.85v-4.59c0-.49-.16-.85-.7-.85h0ZM55.94,50.28h15.38v5.57h-15.38v-5.57ZM46.04,46.98c0-.06.03-.11.05-.21h5.5c.03.06.07.09.07.13.11,2.17-.08,1.94-1.8,1.94h-2.95c-.63,0-.85-.24-.87-.88v-.98ZM33.39,44.66h5.61c0,.98.03,1.91,0,2.83-.03.78-.59,1.31-1.37,1.33-.96.02-1.93.02-2.89,0-.73-.02-1.28-.49-1.33-1.23-.06-.96,0-1.92,0-2.93h-.01ZM17.94,44.66h5.62c-.03.67,0,1.32-.11,1.94-.27,1.4-1.46,2.28-2.88,2.22-1.34-.05-2.44-1.03-2.61-2.4-.07-.57,0-1.15,0-1.77h-.02ZM13.71,50.29h15.39v8.38h-15.39v-8.38ZM29.12,68.5h-15.41v-8.35h15.41v8.35ZM50.24,68.48h-15.42v-1.29h15.42s0,1.29,0,1.29ZM54.45,68.5h-2.78v-3.64c0-.22.06-.49-.05-.65-.16-.23-.46-.55-.67-.53-.25.03-.6.34-.66.6-.11.43-.03.91-.03,1.41h-15.45v-8.37h15.44v4.18c.03.42.26.69.68.7.43,0,.66-.26.72-.67.02-.1,0-.2,0-.3v-4.35c0-.76-.22-.99-.96-.99h-16.38c-.77,0-.96.22-.96,1.05v11.56h-2.78v-18.2h23.87s0,18.2,0,18.2ZM62.88,68.53h-6.94v-11.22h6.94v11.22Z"/>
          <path class="cls-1" d="M53.83,32.46c-1.75-1.52-3.46-3.08-5.21-4.6-.35-.31-.48-.62-.48-1.09.02-4.49,0-8.98,0-13.48,0-.85-.19-1.03-1.03-1.03h-9.06c-1.03,0-1.17.14-1.17,1.19v13.35c0,.45-.13.74-.47,1.03-1.8,1.58-3.58,3.18-5.38,4.76-.35.3-.52.63-.5,1.1.03.68,0,1.37,0,2.06,0,.95.17,1.12,1.13,1.12h21.76c.84,0,1.04-.21,1.04-1.03,0-.65-.04-1.29,0-1.93.05-.63-.2-1.05-.66-1.46h.03ZM53.02,35.44h-20.99v-1.38h5.36c.48,0,.85-.13.9-.67.04-.45-.29-.73-.9-.73-1.17,0-2.34,0-3.51,0-.2,0-.39-.02-.72-.03,1.16-1.04,2.15-2.09,3.3-2.91,1.49-1.05,1.94-2.33,1.87-4.14-.15-3.72-.04-7.45-.04-11.18v-.7h8.45v13.62c0,.51.14.86.53,1.2,1.42,1.22,2.81,2.48,4.21,3.73.1.09.23.16.35.23-.03.06-.05.11-.08.17h-10.12c-.22,0-.49-.05-.65.05-.22.14-.52.42-.5.62.02.25.28.52.51.69.13.1.39.03.59.03h11.45v1.4Z"/>
          <path class="cls-1" d="M32.26,12.26H13.34c-.89,0-1.06.17-1.06,1.05v14.75c0,.9.16,1.07,1.04,1.07h18.98c.9,0,1.06-.16,1.06-1.06v-14.75c0-.92-.15-1.07-1.11-1.07h0ZM22.08,27.69h-8.36v-13.98h8.36v13.98ZM31.95,27.71h-8.39v-14h8.39v14Z"/>
          <path class="cls-1" d="M71.69,12.26h-19.04c-.78,0-.98.19-.98.96v14.93c0,.81.18.99,1.01.99h19.04c.86,0,1.04-.18,1.04-1.02v-14.81c0-.88-.17-1.04-1.07-1.04h0ZM61.47,27.69h-8.37v-13.99h8.37v13.99ZM71.33,27.7h-8.36v-14h8.36v14Z"/>
          <path class="cls-1" d="M66.43,62.17c-.05-.41-.32-.73-.72-.64-.26.06-.6.38-.65.64-.1.48-.1,1.02,0,1.5.06.25.43.58.67.58s.54-.33.68-.58c.11-.2.02-.51.02-.77h0c0-.24.03-.49,0-.72h0Z"/>
          <path class="cls-1" d="M46.5,58.69c-1.33,0-2.66,0-3.98,0h-3.98c-.61,0-.96.26-.93.7.04.57.44.7.94.7h7.97c.5,0,.93-.14.92-.71,0-.56-.42-.7-.93-.7h0Z"/>
          <path class="cls-1" d="M36.89,50.97c-1.17,0-2.1.93-2.11,2.1,0,1.15.97,2.12,2.11,2.12s2.11-.97,2.11-2.12-.95-2.1-2.11-2.1ZM36.89,54.11c-.56,0-1.04-.48-1.04-1.04s.47-1.04,1.04-1.04,1.04.47,1.04,1.04-.48,1.04-1.04,1.04Z"/>
          <path class="cls-1" d="M42.88,50.97c-1.17,0-2.1.93-2.11,2.1,0,1.15.97,2.12,2.11,2.12s2.11-.97,2.11-2.12-.95-2.1-2.11-2.1ZM42.88,54.11c-.56,0-1.04-.48-1.04-1.04s.47-1.04,1.04-1.04,1.04.47,1.04,1.04-.48,1.04-1.04,1.04Z"/>
          <path class="cls-1" d="M48.87,50.97c-1.17,0-2.1.93-2.11,2.1,0,1.15.97,2.12,2.11,2.12s2.11-.97,2.11-2.12-.95-2.1-2.11-2.1ZM48.87,54.11c-.56,0-1.04-.48-1.04-1.04s.47-1.04,1.04-1.04,1.04.47,1.04,1.04-.48,1.04-1.04,1.04Z"/>
          <path class="cls-1" d="M20.01,65.01c.46.01.92,0,1.38,0h1.38c.46,0,.73-.25.73-.7,0-.42-.27-.67-.69-.68-.94-.02-1.89-.02-2.83,0-.42,0-.68.27-.67.69,0,.42.27.66.69.68h.01Z"/>
          <path class="cls-1" d="M22.78,53.77c-.46-.02-.92,0-1.39,0h0c-.46,0-.93-.02-1.39,0-.41.02-.68.26-.69.69,0,.43.27.69.67.71.94.03,1.89.03,2.83,0,.41,0,.69-.26.69-.69s-.29-.69-.73-.71h0Z"/>
          <path class="cls-1" d="M64.37,52.38c-.5-.03-1.01-.03-1.51,0-.39.03-.63.27-.63.68s.25.67.67.7c.24.02.48,0,.72,0h.66c.42-.02.69-.23.72-.66s-.23-.69-.64-.72h0Z"/>
          <path class="cls-1" d="M61.5,64.29c.5,0,.7-.32.72-.79v-1.2c0-.47-.24-.79-.73-.78-.46,0-.67.33-.69.76,0,.42-.02.85,0,1.27.02.43.22.74.7.74Z"/>
          <path class="cls-1" d="M25.61,19.96c-.03-.43-.31-.72-.7-.63-.26.06-.58.38-.63.64-.1.48-.05,1-.02,1.5.02.4.28.62.68.62s.64-.22.68-.62c.02-.24,0-.48,0-.72,0-.26.02-.52,0-.78h-.01Z"/>
          <path class="cls-1" d="M20.72,19.34c-.25.03-.52.34-.67.6-.1.18-.02.47-.02.71h0c0,.26-.02.52,0,.78.03.4.25.63.65.65s.68-.19.7-.59c.04-.54.07-1.09-.03-1.62-.04-.23-.44-.56-.64-.54h.01Z"/>
          <path class="cls-1" d="M60.12,19.34c-.25.03-.54.33-.68.59-.11.2-.02.51-.02.77s-.02.52,0,.78c.04.4.31.67.69.58.25-.06.6-.33.64-.56.09-.52.09-1.09,0-1.61-.04-.23-.43-.57-.63-.55Z"/>
          <path class="cls-1" d="M65.02,20.7c0-.24.01-.48,0-.72-.03-.43-.3-.73-.69-.65-.26.05-.6.37-.65.62-.1.5-.09,1.05,0,1.55.04.23.39.5.64.56.38.09.64-.19.69-.58.03-.26,0-.52,0-.78h.01Z"/>
        </g>
      </g>
    </g>
  </g>
</svg>