<?xml version="1.0" encoding="UTF-8"?>
<svg xmlns="http://www.w3.org/2000/svg" version="1.1" viewBox="0 0 173.73 93.73">
  <defs>
    <style>
      .cls-1 {
        fill: #fff;
      }
    </style>
  </defs>
  <!-- Generator: Adobe Illustrator 28.7.0, SVG Export Plug-In . SVG Version: 1.2.0 Build 136)  -->
  <g>
    <g id="Layer_1">
      <g>
        <g>
          <polygon class="cls-1" points="138.27 6.85 35.46 6.85 34 6.85 34 8.31 34 31.49 35.46 31.49 35.46 8.31 138.27 8.31 138.27 31.49 139.74 31.49 139.74 8.31 139.74 6.85 138.27 6.85"/>
          <polygon class="cls-1" points="35.46 86.88 138.27 86.88 139.74 86.88 139.74 85.42 139.74 62.24 138.27 62.24 138.27 85.42 35.46 85.42 35.46 62.24 34 62.24 34 85.42 34 86.88 35.46 86.88"/>
        </g>
        <g>
          <path class="cls-1" d="M42.88,64.23c.02,1.01-.63,2.04-2.02,2.04h-1.35v-3.98h1.35c1.35,0,2,.97,2.02,1.95ZM39.81,62.57v3.4h1.04c1.18,0,1.73-.89,1.71-1.74-.02-.83-.56-1.66-1.71-1.66h-1.04Z"/>
          <path class="cls-1" d="M44.86,64.86c0-.89.64-1.46,1.43-1.46s1.43.57,1.43,1.46-.64,1.44-1.43,1.44-1.43-.55-1.43-1.44ZM47.45,64.86c0-.73-.52-1.2-1.16-1.2s-1.16.47-1.16,1.2.52,1.17,1.16,1.17,1.16-.44,1.16-1.17Z"/>
          <path class="cls-1" d="M50.06,63.45v.5c.22-.39.61-.55,1-.55.75,0,1.27.46,1.27,1.24v1.62h-.28v-1.62c0-.64-.39-.98-1-.97-.58,0-.98.44-.98,1.02v1.56h-.28v-2.81h.27Z"/>
          <path class="cls-1" d="M54.75,63.45v.5c.22-.39.61-.55,1-.55.75,0,1.27.46,1.27,1.24v1.62h-.28v-1.62c0-.64-.39-.98-1-.97-.58,0-.98.44-.98,1.02v1.56h-.28v-2.81h.27Z"/>
          <path class="cls-1" d="M59.01,64.86c0-.84.64-1.45,1.43-1.45s1.5.48,1.39,1.58h-2.53c.06.66.56,1.04,1.14,1.04.37,0,.8-.15,1.01-.43l.2.16c-.27.36-.76.54-1.21.54-.79,0-1.43-.55-1.43-1.45ZM61.58,64.75c0-.69-.46-1.08-1.14-1.08-.58,0-1.08.39-1.14,1.08h2.28Z"/>
          <path class="cls-1" d="M63.88,63.45h2.12v.11l-1.78,2.44h1.78v.26h-2.21v-.1l1.79-2.46h-1.7v-.25Z"/>
          <path class="cls-1" d="M70.72,63.45h.31l1.02,2.49,1.02-2.49h.31l-1.18,2.81h-.31l-1.18-2.81Z"/>
          <path class="cls-1" d="M75.63,62.54c0,.3-.45.3-.45,0s.45-.3.45,0ZM75.26,63.44v2.82h.28v-2.82h-.28Z"/>
          <path class="cls-1" d="M77.6,64.86c0-.84.64-1.45,1.43-1.45s1.5.48,1.39,1.58h-2.53c.06.66.56,1.04,1.14,1.04.37,0,.8-.15,1.01-.43l.2.16c-.27.36-.76.54-1.21.54-.79,0-1.43-.55-1.43-1.45ZM80.17,64.75c0-.69-.46-1.08-1.14-1.08-.58,0-1.08.39-1.14,1.08h2.28Z"/>
          <path class="cls-1" d="M88.25,63.45v2.81h-.28v-.6c-.27.44-.69.64-1.15.64-.79,0-1.43-.59-1.43-1.45s.64-1.44,1.43-1.44c.46,0,.92.21,1.15.65v-.61h.28ZM85.67,64.86c0,.71.51,1.18,1.15,1.18,1.56,0,1.56-2.35,0-2.35-.64,0-1.15.47-1.15,1.17ZM86.84,62.94l-.52-.7h0s.37,0,.37,0l.43.68v.02h-.27Z"/>
          <path class="cls-1" d="M93.15,63.45h.31l1.02,2.49,1.02-2.49h.31l-1.18,2.81h-.31l-1.18-2.81Z"/>
          <path class="cls-1" d="M97.56,64.86c0-.89.64-1.46,1.43-1.46s1.43.57,1.43,1.46-.64,1.44-1.43,1.44-1.43-.55-1.43-1.44ZM100.14,64.86c0-.73-.52-1.2-1.16-1.2s-1.16.47-1.16,1.2.52,1.17,1.16,1.17,1.16-.44,1.16-1.17Z"/>
          <path class="cls-1" d="M104.41,63.97c-.28-.25-.56-.3-.88-.3-.44,0-.86.16-.85.52.01.38.5.45.85.51.5.09,1.19.17,1.16.82-.02.62-.66.79-1.16.79s-.98-.19-1.23-.56l.2-.18c.23.34.65.48,1.03.48.34,0,.86-.09.88-.53.01-.4-.46-.48-.92-.56-.55-.09-1.09-.19-1.09-.76,0-.55.55-.79,1.12-.79.41,0,.77.11,1.05.38l-.17.18Z"/>
          <path class="cls-1" d="M109.56,64.86c0-.84.64-1.45,1.43-1.45s1.5.48,1.39,1.58h-2.53c.06.66.56,1.04,1.14,1.04.37,0,.8-.15,1.01-.43l.2.16c-.27.36-.76.54-1.21.54-.79,0-1.43-.55-1.43-1.45ZM112.13,64.75c0-.69-.46-1.08-1.14-1.08-.58,0-1.08.39-1.14,1.08h2.28Z"/>
          <path class="cls-1" d="M114.8,63.45v.5c.22-.39.61-.55,1-.55.75,0,1.27.46,1.27,1.24v1.62h-.28v-1.62c0-.64-.39-.98-1-.97-.58,0-.98.44-.98,1.02v1.56h-.28v-2.81h.27Z"/>
          <path class="cls-1" d="M118.77,63.45h.31l1.02,2.49,1.02-2.49h.31l-1.18,2.81h-.31l-1.18-2.81Z"/>
          <path class="cls-1" d="M123.69,62.54c0,.3-.45.3-.45,0s.45-.3.45,0ZM123.32,63.44v2.82h.28v-2.82h-.28Z"/>
          <path class="cls-1" d="M125.65,64.86c0-.84.64-1.45,1.43-1.45s1.5.48,1.39,1.58h-2.53c.06.66.56,1.04,1.14,1.04.37,0,.8-.15,1.01-.43l.2.16c-.27.36-.76.54-1.21.54-.79,0-1.43-.55-1.43-1.45ZM128.22,64.75c0-.69-.46-1.08-1.14-1.08-.58,0-1.08.39-1.14,1.08h2.28Z"/>
          <path class="cls-1" d="M132.54,63.97c-.28-.25-.56-.3-.88-.3-.44,0-.86.16-.85.52.01.38.5.45.85.51.5.09,1.19.17,1.16.82-.02.62-.66.79-1.16.79s-.98-.19-1.23-.56l.2-.18c.23.34.65.48,1.03.48.34,0,.86-.09.88-.53.01-.4-.46-.48-.92-.56-.55-.09-1.09-.19-1.09-.76,0-.55.55-.79,1.12-.79.41,0,.77.11,1.05.38l-.17.18Z"/>
        </g>
        <path class="cls-1" d="M12.61,40.88c1.59,0,3.18.56,4.39,1.72l.75-.62c-1.41-1.35-3.28-2.03-5.14-2.03-4.83,0-7.29,3.38-7.25,6.98.02,3.65,2.5,6.83,7.25,6.83,1.85,0,3.73-.68,5.14-2.03l-.73-.66c-1.21,1.14-2.82,1.72-4.41,1.72-4.07,0-6.16-2.74-6.2-5.9-.02-3.24,2.09-6.02,6.2-6.02Z"/>
        <path class="cls-1" d="M29.81,48.5c0,5.79-8.66,5.81-8.66,0v-8.39h-1.07v8.39c0,7.08,10.8,7.06,10.8,0v-8.39h-1.07v8.39Z"/>
        <rect class="cls-1" x="33.85" y="40.1" width="1.07" height="13.5"/>
        <path class="cls-1" d="M43.34,46.16c-2.38-.42-4.31-.83-4.31-2.55,0-2.16,2.62-2.74,4.27-2.74,1.59.02,3.24.25,4.27,1.83l.89-.5c-1.39-1.99-3.14-2.3-5.16-2.3-2.32,0-5.42.89-5.36,3.74,0,2.49,2.64,2.99,5.22,3.47,2.32.42,4.65.87,4.63,2.89,0,2.39-2.76,2.86-4.49,2.86s-3.95-.81-4.81-2.45l-.97.46c1.09,2.06,3.59,2.93,5.78,2.93,2.36,0,5.56-.73,5.58-3.78,0-2.91-2.82-3.38-5.54-3.88Z"/>
        <rect class="cls-1" x="51.2" y="40.1" width="1.07" height="13.5"/>
        <polygon class="cls-1" points="65.34 51.27 55.85 40.1 55.39 40.1 55.39 53.61 56.47 53.61 56.47 42.46 65.98 53.61 66.4 53.61 66.4 40.1 65.34 40.1 65.34 51.27"/>
        <polygon class="cls-1" points="70.61 47.28 78.87 47.28 78.87 46.34 70.61 46.34 70.61 41.09 79.27 41.09 79.27 40.1 69.54 40.1 69.54 53.61 79.51 53.61 79.51 52.61 70.61 52.61 70.61 47.28"/>
        <polygon class="cls-1" points="88.55 44.79 88.56 44.79 88.56 40.1 87.47 40.1 87.47 53.61 88.56 53.61 88.56 48.73 88.55 48.73 88.55 44.79"/>
        <polygon class="cls-1" points="97.54 46.53 90.02 46.53 90.02 47.47 97.54 47.47 97.54 53.61 98.63 53.61 98.63 40.1 97.54 40.1 97.54 46.53"/>
        <path class="cls-1" d="M106.61,40.1l-6.32,13.5h1.17l1.53-3.32h8.42l1.55,3.32h1.17l-6.32-13.5h-1.19ZM103.4,49.33l3.79-8.22,3.79,8.22h-7.57Z"/>
        <path class="cls-1" d="M123.85,46.68c1.41-.42,2.3-1.5,2.3-2.89,0-2.57-2.26-3.68-4.63-3.68h-5.78v13.5h5.78c2.42,0,5.12-.75,5.12-3.53,0-1.56-1.01-2.93-2.78-3.4ZM116.82,40.99h4.69c1.75,0,3.61.83,3.61,2.8s-1.77,2.43-3.46,2.43h-4.83v-5.23ZM121.51,52.61h-4.69v-5.4h4.83c1.89,0,3.89.75,3.91,2.86,0,2.14-2.28,2.55-4.05,2.55Z"/>
        <rect class="cls-1" x="129.24" y="40.1" width="1.07" height="13.5"/>
        <polygon class="cls-1" points="132.97 41.05 138.07 41.05 138.07 53.61 139.15 53.61 139.15 41.05 144.25 41.05 144.25 40.12 132.97 40.12 132.97 41.05"/>
        <path class="cls-1" d="M151.18,40.1l-6.32,13.5h1.17l1.53-3.32h8.42l1.55,3.32h1.17l-6.32-13.5h-1.19ZM147.98,49.33l3.79-8.22,3.79,8.22h-7.57Z"/>
        <polygon class="cls-1" points="157.1 40.12 157.1 41.05 162.19 41.05 162.19 53.61 163.28 53.61 163.28 41.05 168.38 41.05 168.38 40.12 157.1 40.12"/>
      </g>
    </g>
  </g>
</svg>