<?xml version="1.0" encoding="UTF-8"?>
<svg xmlns="http://www.w3.org/2000/svg" version="1.1" viewBox="0 0 85.04 85.04">
  <defs>
    <style>
      .cls-1 {
        fill: #878c87;
      }
    </style>
  </defs>
  <!-- Generator: Adobe Illustrator 28.7.0, SVG Export Plug-In . SVG Version: 1.2.0 Build 136)  -->
  <g>
    <g id="Layer_1">
      <g id="Layer_1-2" data-name="Layer_1">
        <g id="Layer_1-2">
          <g>
            <path class="cls-1" d="M42.49,69.78H12.45c-1.35,0-1.69-.31-1.82-1.68-.49-5.24-.97-10.47-1.46-15.71-.21-2.21-.44-4.41-.66-6.62-.03-.35-.04-.71-.03-1.06.02-1.02.59-1.84,1.57-2.11.58-.16.7-.44.7-.99-.02-9.14-.01-18.28,0-27.42,0-2.8,1.82-5.03,4.56-5.63.4-.09.8-.1,1.2-.1h52.08c3.28,0,5.75,2.46,5.75,5.73v27.28c0,.6.07.97.76,1.16.98.26,1.56,1.12,1.49,2.16-.11,1.86-.3,3.71-.47,5.57-.26,2.75-.54,5.49-.79,8.24-.3,3.22-.58,6.44-.9,9.65-.12,1.24-.48,1.53-1.73,1.53,0,0-30.21,0-30.21,0ZM42.48,44.84H11.88c-.97,0-1,0-.91,1,.23,2.63.48,5.26.73,7.89.41,4.2.83,8.4,1.23,12.6.1,1.09.09,1.09,1.2,1.09h56.59c1.22,0,1.4.24,1.41-1.24,0-.3.08-.61.11-.91.3-3.24.6-6.48.9-9.72.31-3.21.64-6.43.93-9.64.1-1.05.06-1.05-1-1.05h-30.6v-.02h0ZM42.45,22.06c9.54,0,19.08,0,28.62.01.66,0,.91-.15.89-.86-.04-2.2,0-4.39-.02-6.59,0-2.41-1.38-3.8-3.78-3.8H16.87c-2.4,0-3.77,1.39-3.78,3.8v6.52c0,.61.31.92.94.92h28.42ZM42.56,24.43H13.94c-.55,0-.86.06-.86.75.03,5.53.02,11.05,0,16.58,0,.55.16.74.73.73,2.5-.02,5.01-.03,7.51,0,.62,0,.81-.24.89-.8,1.41-9.06,11.79-13.56,19.4-8.39.53.36.76.34,1.14-.2,3.53-4.92,8.34-7.12,14.35-6.34,7.27.95,12.65,7.21,12.66,14.52,0,1.27-.16,1.19,1.17,1.19h.14c.69.11.88-.19.87-.87-.03-5.41-.01-10.81-.01-16.22,0-.63-.33-.95-.98-.95h-28.41.02ZM55,42.47c3.82,0,7.65-.02,11.47.02.7,0,.96-.26.93-.89-.03-.71-.05-1.42-.16-2.11-1.15-7.04-7.69-11.6-14.71-10.23-5.34,1.04-9.89,5.74-9.95,12.21,0,.91.1,1.01,1.01,1.01h11.41ZM32.38,42.47c2.36,0,4.72-.02,7.08,0,.59,0,.79-.18.76-.77-.1-1.74.17-3.44.77-5.07.2-.53.06-.82-.37-1.12-2.13-1.5-4.45-2.2-7.07-1.92-4.45.48-8.02,3.73-8.89,8.09-.12.62.01.79.63.78,2.36-.03,4.72,0,7.08,0h.01Z"/>
            <path class="cls-1" d="M42.49,76.58H14.51c-2.51,0-3.93-1.54-3.78-4.05.02-.42.17-.61.59-.58h.42c.8,0,1.26.39,1.37,1.16.09.65.47,1.02,1.11,1.09.26.03.52.02.78.02h55.04c1.57,0,1.75-.17,1.91-1.75,0-.07-.01-.16.02-.21.51-.65,1.22-.18,1.82-.3.35-.07.48.14.52.5.24,2.44-1.26,4.12-3.71,4.12h-28.12s0,0,.01,0Z"/>
            <path class="cls-1" d="M42.52,51.64h-3.39c-1.35-.02-2.29-.98-2.31-2.33,0-.4-.02-.8,0-1.2.05-.66.52-1.08,1.16-1.09.64,0,1.11.42,1.18,1.07.09.79.53,1.19,1.32,1.19h4.74c.48,0,.7-.15.66-.65-.02-.26-.02-.53.05-.77.15-.53.52-.83,1.09-.85.59-.02,1.06.27,1.16.83.13.76.18,1.55-.08,2.31-.31.9-1.13,1.47-2.12,1.48-1.15.02-2.31,0-3.46,0h0Z"/>
            <path class="cls-1" d="M20.98,19.89c-1.95,0-3.44-1.49-3.44-3.45s1.5-3.45,3.45-3.45,3.44,1.5,3.44,3.45-1.5,3.44-3.46,3.44h0ZM22.03,16.46c.01-.53-.5-1.06-1.03-1.07-.53,0-1.05.5-1.07,1.03-.01.53.5,1.06,1.03,1.07s1.06-.5,1.07-1.03Z"/>
            <path class="cls-1" d="M31.23,17.61c-.01,1.32-1.03,2.3-2.37,2.28-1.27-.02-2.26-1.04-2.26-2.32s.99-2.32,2.33-2.31c1.32,0,2.31,1.02,2.3,2.35Z"/>
            <path class="cls-1" d="M51.53,19.89c-.38,0-.75.02-1.13,0-.69-.05-1.13-.53-1.12-1.2,0-.63.44-1.11,1.1-1.14.8-.03,1.6-.03,2.4,0,.69.03,1.13.53,1.12,1.2,0,.63-.45,1.1-1.1,1.14-.42.03-.85,0-1.27,0Z"/>
            <path class="cls-1" d="M59.58,17.53c.38,0,.75-.02,1.13,0,.69.04,1.14.52,1.13,1.19,0,.63-.43,1.13-1.09,1.15-.82.03-1.65.04-2.47,0-.65-.03-1.07-.54-1.06-1.18,0-.64.43-1.11,1.09-1.16.42-.03.85,0,1.27,0h0Z"/>
            <path class="cls-1" d="M67.47,19.88c-.42,0-.85.03-1.27,0-.64-.06-1.06-.56-1.04-1.2.01-.61.42-1.1,1.04-1.13.84-.04,1.69-.04,2.54,0,.64.03,1.06.56,1.05,1.19-.01.61-.42,1.08-1.04,1.13-.42.04-.85,0-1.27,0h-.01Z"/>
            <path class="cls-1" d="M18.67,29.98c0-.57.01-1.13,0-1.7,0-.39.16-.53.55-.55,1.82-.14,1.82-.15,1.82,1.69v.57s-.07.09-.11.13h-2.15s-.07-.09-.11-.13h0Z"/>
            <path class="cls-1" d="M18.65,32.37h-1.33c-.91,0-.92,0-.91-.95.01-1.62-.18-1.4,1.42-1.42.28,0,.56-.01.84-.02.04.04.07.09.11.13v2.15s-.09.07-.13.11Z"/>
            <path class="cls-1" d="M21.04,29.98c.58,0,1.17.02,1.75.02.35,0,.52.15.51.51v.07c-.02,2.19.25,1.73-1.68,1.79h-.56s-.09-.07-.13-.11v-2.15s.07-.09.11-.13Z"/>
            <path class="cls-1" d="M21.05,32.37c0,.56-.03,1.13-.02,1.69,0,.42-.17.58-.59.58-2.18-.02-1.73.23-1.78-1.63,0-.21-.01-.42-.02-.63.04-.04.09-.07.13-.11h2.15s.09.07.13.11h0Z"/>
            <path class="cls-1" d="M64.01,41.44c-.77,0-1.18-.38-1.25-1.13-.31-3.3-3.4-6.38-6.71-6.68-.73-.07-1.1-.47-1.1-1.22,0-1.36.08-1.44,1.45-1.21,4.69.78,7.92,3.99,8.76,8.69,0,.05.02.09.03.14.21,1.33.14,1.41-1.18,1.41Z"/>
          </g>
        </g>
      </g>
    </g>
  </g>
</svg>