<?xml version="1.0" encoding="UTF-8"?>
<svg xmlns="http://www.w3.org/2000/svg" version="1.1" viewBox="0 0 85.04 85.04">
  <defs>
    <style>
      .cls-1 {
        fill: #878c87;
      }
    </style>
  </defs>
  <!-- Generator: Adobe Illustrator 28.7.0, SVG Export Plug-In . SVG Version: 1.2.0 Build 136)  -->
  <g>
    <g id="Layer_1">
      <g id="Layer_1-2" data-name="Layer_1">
        <g>
          <path class="cls-1" d="M6.68,46.87c.58-1.47,1.62-2.37,3.22-2.53.38-.04.56-.3.76-.55,4.59-5.64,9.18-11.28,13.76-16.93,1.29-1.59,2.57-3.19,3.89-4.77.32-.39.45-.78.44-1.27-.01-4.08,0-8.16,0-12.24,0-1.37.38-1.76,1.74-1.76h23.99c1.39,0,1.76.38,1.76,1.8v12.1c0,.54.14.97.49,1.4,5.82,7.13,11.63,14.28,17.43,21.43.38.47.79.77,1.42.88,1.7.3,2.79,1.63,2.79,3.34.01,2.91.01,5.83,0,8.74,0,1.95-1.46,3.4-3.42,3.4H10.05c-1.74,0-2.79-.98-3.36-2.56v-10.49h-.01ZM42.46,44.33h28.74c.13,0,.3.04.37-.12.06-.15-.08-.25-.16-.36-.72-.89-1.44-1.77-2.16-2.66-4.73-5.82-9.47-11.64-14.2-17.47-.35-.44-.74-.62-1.31-.62-7.5.02-15.01.02-22.51,0-.54,0-.91.18-1.25.6-4.43,5.47-8.87,10.93-13.31,16.39l-3,3.69c-.1.12-.28.25-.22.41.08.23.32.13.49.14.19.02.37,0,.56,0h27.97,0ZM42.5,57.6h31.89c1.38,0,1.65-.27,1.65-1.61v-7.55c0-1.49-.31-1.79-1.8-1.79H10.39c-1,0-1.44.42-1.44,1.45v7.76c0,1.51.23,1.75,1.73,1.75h31.82ZM42.5,13.82h10.69c.53,0,.76-.14.74-.71-.04-1.09-.03-2.19,0-3.28,0-.51-.15-.69-.68-.69-7.17.01-14.35.01-21.52,0-.54,0-.68.21-.67.71.03,1.02.05,2.05,0,3.07-.04.7.17.92.89.92,3.52-.04,7.03-.02,10.55-.02ZM42.53,16.13c-3.54,0-7.08.02-10.62-.01-.69,0-.88.22-.85.88.05,1.05.03,2.1,0,3.14-.01.47.14.66.64.66,7.2-.01,14.39-.01,21.59,0,.5,0,.65-.19.64-.66-.02-1.02,0-2.05,0-3.07,0-.62-.3-.93-.91-.93h-10.49Z"/>
          <path class="cls-1" d="M30.43,64.14c-.01.4-.21.7-.47.98-1.18,1.26-1.28,2.04-.52,3.59.59,1.21,1.38,2.32,1.88,3.58.79,2.01.43,3.79-1.02,5.35-.62.66-1.22.74-1.77.26-.53-.47-.55-1.15.04-1.79.99-1.06,1-2.18.4-3.4-.62-1.27-1.46-2.43-1.96-3.77-.78-2.11-.27-4.14,1.42-5.56.41-.35.86-.45,1.36-.24.42.19.62.55.65,1h0Z"/>
          <path class="cls-1" d="M57.08,64.06c0,.55-.26.85-.53,1.14-1.03,1.09-1.17,2-.52,3.37.6,1.26,1.43,2.4,1.94,3.72.76,1.98.44,3.74-.97,5.32-.32.36-.69.64-1.21.58-.93-.12-1.35-1.19-.67-1.91,1.19-1.27,1.09-2.56.31-3.96-.61-1.1-1.31-2.15-1.75-3.34-.79-2.13-.28-4.13,1.44-5.61.4-.34.83-.44,1.29-.23.44.19.67.56.68.94v-.02Z"/>
          <path class="cls-1" d="M43.75,64.11c0,.41-.21.7-.48.99-1.19,1.28-1.32,2.04-.54,3.59.53,1.06,1.17,2.07,1.68,3.14,1.05,2.22.73,4.24-.87,5.86-.58.59-1.15.67-1.67.24-.52-.43-.6-1.18-.06-1.74,1.17-1.22,1.05-2.49.29-3.84-.54-.96-1.09-1.9-1.56-2.89-1.1-2.32-.65-4.54,1.16-6.09.41-.35.87-.46,1.36-.25.42.18.62.55.68.98h0Z"/>
          <path class="cls-1" d="M59.21,51.02h10.06c.23,0,.47,0,.7.02.55.09.87.45.94.98.07.54-.18.95-.68,1.18-.26.12-.54.13-.82.13h-20.33c-.23,0-.47,0-.69-.08-.58-.17-.92-.58-.85-1.2.07-.6.44-.96,1.06-1.02.23-.02.47,0,.7,0h9.92-.01Z"/>
          <path class="cls-1" d="M34.58,55.86c-2.02,0-3.71-1.66-3.73-3.67-.02-2.03,1.7-3.76,3.72-3.76s3.75,1.75,3.73,3.76-1.71,3.67-3.73,3.67h0ZM35.92,52.11c0-.79-.58-1.32-1.39-1.31-.77.02-1.37.64-1.34,1.39.03.71.72,1.36,1.43,1.34.76-.02,1.32-.63,1.31-1.42h-.01Z"/>
          <path class="cls-1" d="M25.39,55.86c-2.03,0-3.71-1.64-3.74-3.66-.03-2.04,1.74-3.8,3.79-3.76,2.01.03,3.67,1.73,3.66,3.74-.02,2.02-1.69,3.68-3.7,3.68h0ZM24.03,52.1c-.01.8.54,1.4,1.3,1.42.72.02,1.4-.62,1.43-1.33.03-.75-.57-1.38-1.34-1.39-.82-.02-1.38.51-1.4,1.3h.01Z"/>
          <path class="cls-1" d="M12.5,52.13c0-2.06,1.64-3.69,3.68-3.69s3.71,1.68,3.69,3.77c-.02,2.03-1.69,3.67-3.73,3.65-2.04-.02-3.65-1.66-3.64-3.73ZM14.83,52.13c0,.75.62,1.4,1.36,1.4s1.38-.66,1.36-1.4c-.02-.76-.57-1.31-1.33-1.33-.81,0-1.39.53-1.39,1.32h0Z"/>
        </g>
      </g>
    </g>
  </g>
</svg>