<?xml version="1.0" encoding="UTF-8"?>
<svg xmlns="http://www.w3.org/2000/svg" version="1.1" viewBox="0 0 85.04 85.04">
  <defs>
    <style>
      .cls-1 {
        fill: #878c87;
      }
    </style>
  </defs>
  <!-- Generator: Adobe Illustrator 28.7.0, SVG Export Plug-In . SVG Version: 1.2.0 Build 136)  -->
  <g>
    <g id="Layer_1">
      <g id="Layer_1-2" data-name="Layer_1">
        <g>
          <path class="cls-1" d="M54.36,4.37c2.1.87,2.85,1.99,2.85,4.28v4.69c0,.48-.06.95-.46,1.29-.36.31-.78.42-1.24.21-.51-.24-.73-.66-.73-1.2,0-1.44,0-2.88,0-4.31v-1.19c-.04-.88-.48-1.36-1.37-1.46-.2-.02-.4-.01-.59-.01h-30.13c-.35,0-.69,0-1.03.12-.52.18-.83.53-.88,1.08-.03.25-.03.5-.03.74v21.94q0,1.03,1.03,1.03h22.07c.07-.31-.16-.4-.27-.54-.42-.58-.39-1.25.08-1.68.49-.44,1.12-.43,1.67.08.6.56,1.16,1.15,1.74,1.73.19.19.38.41.68.41h5.04c.05-.34-.19-.43-.33-.59-.27-.29-.59-.54-.83-.85-1.28-1.67-2.84-2.7-5.07-2.26-.33.06-.7-.03-1-.23-.4-.27-.62-.65-.54-1.14.09-.54.42-.89.96-1,.23-.05.48-.05.88-.09-.41-.42-.73-.74-1.04-1.08-.55-.61-.57-1.3-.07-1.79.49-.48,1.12-.46,1.73.07.35.3.68.64,1.03.96.25-.24.12-.51.17-.74.12-.61.61-1.05,1.2-1,.64.06,1.08.4,1.11,1.08.04.84.02,1.69.02,2.53,0,.27-.05.58.16.78,1.15,1.15,2.32,2.28,3.59,3.52v-4.68c0-.27-.23-.43-.41-.6-.52-.53-1.06-1.05-1.58-1.58-.62-.64-.7-1.32-.22-1.83.46-.49,1.13-.47,1.8.05.09.07.19.14.43.33,0-.74,0-1.34,0-1.95.02-.88.48-1.41,1.19-1.43s1.2.51,1.24,1.39c.03.61,0,1.22,0,1.83.33.04.42-.19.57-.29.54-.39,1.2-.37,1.63.06.46.47.48,1.12-.02,1.67-.53.59-1.1,1.15-1.68,1.69-.35.33-.51.69-.5,1.17.02,1.35,0,2.71,0,4.06.06.03.12.05.18.08.71-.71,1.36-1.48,2.14-2.11,1.08-.87,1.58-1.91,1.36-3.29-.05-.34-.02-.69,0-1.04.04-.85.47-1.34,1.17-1.36.72-.02,1.15.4,1.26,1.27.02.12.03.24.07.51.5-.49.91-.89,1.33-1.29.71-.67,1.36-.74,1.89-.2.53.53.47,1.21-.18,1.9-.37.4-.76.78-1.13,1.18-.02.02-.01.05-.02.08.08.22.29.13.44.15.8.12,1.22.56,1.2,1.25-.02.68-.49,1.13-1.28,1.17-.82.04-1.64.02-2.45.01-.37,0-.67.09-.94.36-.96.97-1.93,1.93-2.89,2.9-.08.08-.19.17-.13.39h4.56c.27,0,.42-.24.6-.41.53-.52,1.05-1.06,1.58-1.57.62-.61,1.25-.68,1.77-.22.52.46.51,1.15-.03,1.85-.06.08-.12.15-.21.27.31.21.64.1.94.12.4.02.8-.01,1.19.04.73.09,1.17.59,1.15,1.22s-.5,1.13-1.22,1.17c-.66.04-1.33,0-1.98,0-.07.32.16.41.26.56.4.59.38,1.27-.08,1.69-.47.43-1.14.4-1.67-.1-.6-.56-1.16-1.15-1.74-1.73-.19-.19-.38-.4-.68-.4h-4.54c.38.69.98,1.03,1.37,1.55,1.24,1.65,2.78,2.49,4.9,2.13.63-.11,1.26.12,1.49.84.16.51.03.98-.43,1.32-.34.26-.75.22-1.19.31.33.63.91.99,1.33,1.49.43.51.57,1.05.16,1.63-.43.62-1.21.68-1.81.11-.48-.45-.88-.99-1.32-1.49-.36.34-.25.58-.3.78-.16.67-.64,1.07-1.26,1.03-.61-.03-1.08-.48-1.12-1.18-.05-.79-.05-1.59-.02-2.38.02-.54-.14-.94-.53-1.32-.99-.96-1.95-1.96-2.91-2.93-.33.16-.23.39-.24.56,0,1.39,0,2.78,0,4.17,0,.45.12.81.46,1.12.51.47.99.97,1.48,1.47.7.71.79,1.34.3,1.89-.48.53-1.16.5-1.9-.11-.06-.05-.12-.08-.22-.14-.19.28-.11.58-.11.86v31.39c0,1.03-.18,1.97-.98,2.71-1.17,1.07-5.14,1.13-6.33.1-.44-.38-.74-.86-.95-1.4-.33-.83-.72-1.64-.99-2.49-.22-.67-.6-.83-1.27-.82-4.49.03-8.98.01-13.46.01-.27,0-.55.02-.82-.03-.57-.11-.94-.46-.99-1.05-.05-.62.25-1.04.85-1.23.41-.13.83-.12,1.25-.12h20.16c.72,0,1.08-.35,1.09-1.05v-26.11c0-.24.06-.49-.07-.73-.29,0-.4.27-.6.38-.57.31-1.11.32-1.56-.18-.44-.49-.45-1.06,0-1.55.58-.64,1.21-1.24,1.82-1.86.19-.19.4-.38.4-.68v-5.15c-.73.46-1.13,1.11-1.71,1.55-1.64,1.22-2.39,2.76-2.08,4.85.14.94-.41,1.51-1.12,1.51s-1.12-.5-1.2-1.49c0-.07-.03-.14-.08-.33-.38.36-.7.68-1.04.99-.61.56-1.29.59-1.79.1s-.49-1.19.08-1.78c.31-.32.69-.57,1.02-.83-.29-.43-.56-.27-.78-.32-.65-.13-1.05-.51-1.05-1.16,0-.6.34-1.03.96-1.16.88-.18,1.78-.09,2.67-.09.51,0,.89-.15,1.25-.51.98-1.01,2-1.99,3.05-3.03-.41-.25-.76-.15-1.09-.15-1.26,0-2.53,0-3.79,0-.4,0-.71.12-.99.41-.51.54-1.04,1.06-1.58,1.58-.65.64-1.31.73-1.83.26-.53-.47-.49-1.19.1-1.9.05-.06.08-.12.13-.19-.15-.26-.4-.15-.59-.15-7.22,0-14.43,0-21.65-.02-.73,0-.92.25-.92.94.02,12.3.01,24.6.01,36.9,0,.96.03.98,1.02.98,1.61,0,3.22-.01,4.84,0,1.44.02,1.94.75,1.42,2.08-.48,1.22-.99,2.43-1.48,3.65-.57,1.4-1.57,2.11-3.11,2.05-.74-.03-1.49,0-2.23,0-1.6-.03-2.81-1.23-2.88-2.82-.01-.27,0-.55,0-.82,0-22.74.01-45.47-.02-68.21,0-2.12.77-3.58,2.74-4.37h33.33l-.05-.08ZM52.5,75.24c-.54,0-1.09.01-1.63,0-.45-.02-.66.09-.44.59.27.61.5,1.23.75,1.85.15.38.43.59.85.59.67,0,1.33.01,2,0,.46-.01.74-.24.74-.74v-1.7c0-.4-.16-.59-.57-.58-.57.01-1.13,0-1.7,0h0ZM23.03,75.24c-1.63,0-2.4.73-2.29,2.2.16,2.2,0,.05,0,.07,0,.49.28.7.74.74,2.38.25,2.46.21,3.39-2,.06-.14.11-.28.18-.41.22-.42.16-.64-.38-.62-.54.03-1.09,0-1.63,0v.02Z"/>
          <path class="cls-1" d="M30.14,43.19v3.05c0,1.26-.49,2.27-1.54,2.96-.41.27-.54.57-.53,1.04.03.99.01,1.98,0,2.97,0,.93-.46,1.49-1.19,1.47-.7,0-1.14-.56-1.15-1.44,0-.99-.02-1.98,0-2.97.01-.44-.12-.72-.53-.95-1.17-.64-1.72-1.65-1.72-2.99.01-2.16,0-4.31,0-6.47.01-1.85,1.47-3.31,3.29-3.33,1.77-.02,3.26,1.41,3.33,3.23.04,1.14,0,2.28,0,3.42h.04ZM27.71,43.16h0v-3.2c0-.57-.26-.99-.86-1-.62,0-.97.41-.98,1-.03,2.13-.03,4.26,0,6.4,0,.57.35,1,1,.96.61-.04.84-.45.84-1.02v-3.14Z"/>
          <path class="cls-1" d="M23.5,21c0-1.09-.01-2.18,0-3.27.02-1.84,1.38-3.26,3.14-3.29,1.91-.04,3.42,1.25,3.48,3.12.07,2.3.06,4.61,0,6.92-.05,1.78-1.65,3.2-3.41,3.15-1.78-.06-3.17-1.46-3.2-3.26-.02-1.12,0-2.23,0-3.35v-.02ZM27.71,20.99v-3.12c0-.62-.29-1.04-.9-1.06-.62-.02-.94.45-.95,1.03-.02,2.11-.03,4.21,0,6.32,0,.57.3,1.01.96,1,.67-.01.88-.45.88-1.05v-3.12h.01Z"/>
        </g>
      </g>
    </g>
  </g>
</svg>